<svg width="221" height="66" viewBox="0 0 221 66" fill="none" xmlns="http://www.w3.org/2000/svg">
<g id="Frame 54" clip-path="url(#clip0_2071_3620)">
<g id="&#208;&#161;&#208;&#187;&#208;&#190;&#208;&#185; 2">
<g id="&#229;&#155;&#190;&#229;&#177;&#130; 1">
<path id="Vector" d="M62.475 28.5266C80.6606 29.7161 98.8403 30.6351 110.578 30.6351C122.317 30.6351 140.499 29.7013 158.685 28.5266L159.827 0.967093C144.365 0.758917 127.191 0.651855 110.578 0.651855C93.966 0.651855 76.7945 0.758917 61.333 0.967093L62.475 28.5266Z" fill="#1B2B19"/>
<path id="Vector_2" d="M1.32189 23.9111C1.7888 23.9497 30.1691 26.4003 59.4802 28.3304L58.3471 1.00879C32.4917 1.38648 12.0013 2.05562 8.01027 3.00728C1.54493 4.55075 0.661673 9.63023 0.590299 13.0146C0.539164 16.6412 0.671177 20.2681 0.985832 23.8813L1.32189 23.9111Z" fill="#1B2B19"/>
<path id="Vector_3" d="M161.679 28.3304C190.979 26.4003 219.374 23.9497 219.838 23.9111L220.171 23.8694C220.486 20.2602 220.619 16.6373 220.569 13.0146C220.495 9.63023 219.612 4.55075 213.135 3.00728C209.155 2.05562 188.665 1.38648 162.813 1.00879L161.679 28.3304Z" fill="#1B2B19"/>
<path id="Vector_4" d="M161.495 31.3339L159.086 59.8331C173.932 57.1952 187.371 54.3819 192.909 52.9128C205.126 49.6741 212.632 46.1411 216.605 39.078C218.309 36.0476 219.282 31.4469 219.876 26.9116C217.078 27.1436 189.67 29.4811 161.495 31.3339Z" fill="#1B2B19"/>
<path id="Vector_5" d="M158.492 31.5303C140.377 32.6961 122.299 33.612 110.584 33.612C98.8701 33.612 80.7915 32.6871 62.6772 31.5303L65.1307 60.3566C82.2101 63.3306 100.544 65.9298 110.584 65.9298C120.624 65.9298 138.962 63.3246 156.041 60.3566L158.492 31.5303Z" fill="#1B2B19"/>
<path id="Vector_6" d="M59.6617 31.334C31.4866 29.4812 4.09371 27.1437 1.30713 26.9028C1.87218 31.4381 2.85952 36.0388 4.57846 39.0692C8.53677 46.1323 16.04 49.6653 28.2599 52.904C33.8004 54.3731 47.2396 57.1864 62.0855 59.8243L59.6617 31.334Z" fill="#1B2B19"/>
</g>
</g>
</g>
<defs>
<clipPath id="clip0_2071_3620">
<rect width="220" height="65.2779" fill="white" transform="translate(0.57959 0.651855)"/>
</clipPath>
</defs>
</svg>
