<svg width="169" height="84" viewBox="0 0 169 84" fill="none" xmlns="http://www.w3.org/2000/svg">
<g id="Frame 61" clip-path="url(#clip0_2071_3755)">
<g id="Vector">
<path d="M102.208 71.1989C102.208 70.4554 101.886 70.0341 101.019 70.0341H100.127V72.6363H101.019C101.886 72.6363 102.208 72.215 102.208 71.1989Z" fill="#1B2B19"/>
<path d="M100.87 74.8915H100.127V78.1133H100.82C101.961 78.1133 102.307 77.6672 102.307 76.5272C102.307 75.4615 101.985 74.8915 100.895 74.8915" fill="#1B2B19"/>
<path d="M163.373 70.1333H161.143V80.3687H158.342V70.1333H155.938V67.7541H163.373V70.1333ZM144.29 71.9177H141.242V70.7776C141.242 70.1085 140.622 69.7863 140.127 69.7863C139.606 69.7863 139.086 70.0589 139.086 70.7281V77.023C139.086 77.9648 139.482 78.3613 140.127 78.3613C140.771 78.3613 141.242 78.0143 141.242 77.0478V75.3873H144.29V76.5769C144.29 79.4518 142.977 80.6909 140.176 80.6909C137.376 80.6909 136.062 79.4518 136.062 76.5521V71.0502C136.062 69.0676 137.301 67.4815 140.176 67.4815C143.051 67.4815 144.29 69.0924 144.29 71.075V71.9424V71.9177ZM124.241 70.1333H120.201V72.6116H123.819V75.0156H120.201V77.9895H124.241V80.3687H117.177V67.7293H124.241V70.1333ZM101.415 80.3687H97.1773V67.7293H102.035C103.522 67.7293 105.158 68.6215 105.158 70.9015C105.158 72.6364 104.092 73.4294 103.423 73.5781C104.588 74.0738 105.257 74.8916 105.257 76.6513C105.257 79.0057 103.993 80.3687 101.39 80.3687M85.777 80.3687H82.7287V75.0156H80.746V80.3687H77.6977V67.7293H80.746V72.6116H82.7287V67.7293H85.777V80.3687ZM66.223 80.3687H63.3234V77.4443C63.3234 76.0812 63.7447 74.0242 63.8934 72.6859L61.2664 80.3687H58.3172V67.7293H61.2168V70.852C61.2168 72.2398 60.8203 74.2721 60.7459 75.6599L63.2986 67.7293H66.1983V80.3687H66.223ZM53.0383 64.5322V83.6401H168.875V64.5322H53.0383Z" fill="#1B2B19"/>
<path d="M45.8266 28.7699C45.7522 31.7191 45.4053 34.817 44.9592 36.7005C45.1327 33.4787 44.7361 28.9681 43.9926 25.4241C43.2491 21.8801 41.1673 15.9817 39.5069 13.2556C37.9703 15.8578 36.062 20.9632 35.0707 25.3994C34.0793 29.8356 34.0298 35.1887 34.0298 36.7997C33.7571 35.4366 33.1128 30.6038 33.2863 25.7463C33.435 21.7314 34.3767 17.6174 34.8972 15.7339C36.8551 9.41415 39.0608 5.37448 39.4821 4.73011C39.9034 5.37448 42.6791 10.3559 44.1413 15.5852C45.5788 20.8144 45.8762 25.8207 45.8018 28.7699M39.5317 51.3474C38.6642 49.7117 37.3259 46.6138 37.202 41.8059C37.1772 37.1466 39.036 33.1813 39.5812 32.3387C40.0769 33.1813 41.663 36.651 41.8613 41.3846C41.9852 46.0438 40.4486 49.6869 39.5564 51.3474M46.347 15.6347C44.5874 7.90237 40.1512 1.60742 39.5317 0.591309C38.5651 2.02874 35.0459 7.58019 33.2367 13.7512C31.2788 20.6162 30.9814 26.7129 31.6506 32.7104C32.3197 38.708 34.8724 44.879 34.8724 44.879C36.2107 48.1256 38.2429 51.5705 39.5564 53.2805C41.4895 50.7774 45.9009 43.3176 47.2888 33.553C48.0571 28.1255 48.0819 23.3919 46.3223 15.6347" fill="#1B2B19"/>
<path d="M42.5307 55.0646H29.0982V64.0857C29.0982 64.0857 29.0982 64.0857 29.123 64.061C32.2952 60.8887 37.4254 60.8887 40.5729 64.061C43.7451 67.2332 43.7451 72.3633 40.5729 75.5356C40.5729 75.5356 40.5481 75.5356 40.5233 75.5604C40.5233 75.5604 40.4985 75.5852 40.4737 75.61C37.3015 78.7326 33.1874 80.3188 29.0734 80.3188C24.9594 80.3188 20.7958 78.7326 17.6236 75.5852C12.0473 70.0089 11.403 61.4091 15.6409 55.1142C16.2109 54.2716 16.8801 53.4537 17.6236 52.7102C20.7958 49.5627 24.9346 47.9766 29.0734 47.9766V26.316C13.1626 26.316 0.250488 39.2281 0.250488 55.139C0.250488 71.0498 13.1626 83.9619 29.0734 83.9619C37.3758 83.9619 44.8604 80.4427 50.1144 74.8417V55.139H42.5059L42.5307 55.0646Z" fill="#1B2B19"/>
<path d="M53.0383 54.9409H58.7633V29.5133H63.943V25.9197H53.0383V54.9409Z" fill="#1B2B19"/>
<path d="M70.4113 44.0363L71.4026 29.5133H71.7248L72.7162 44.0363H70.4113ZM67.0656 25.9197L64.0916 54.9409H69.6926L70.213 47.2333H72.9144L73.4349 54.9409H79.0359L76.0619 25.9197H67.0656Z" fill="#1B2B19"/>
<path d="M89.9909 25.9197H85.2573C81.2424 25.9197 80.9945 29.0672 80.9945 31.0994V35.2135H86.7195V30.4799C86.7195 29.7364 87.2895 29.5381 87.6117 29.5381C88.1321 29.5381 88.5039 29.9842 88.5039 30.4799V36.2544C88.5039 38.0387 87.9338 38.4105 86.2982 38.4105H83.8942V41.6075H86.2238C88.3552 41.6075 88.5039 42.5989 88.5039 43.5158V50.2569C88.5039 50.7526 88.1321 51.1987 87.6117 51.1987C87.2895 51.1987 86.7195 51.0004 86.7195 50.2569V44.7798H80.9945V49.7612C80.9945 51.7935 81.2424 54.9409 85.2573 54.9409H89.9909C94.0057 54.9409 94.2288 51.7935 94.2288 49.7612V43.9124C94.2288 42.8715 94.1792 39.8975 90.3626 39.9718V39.6744C92.0727 39.7488 94.2288 38.8814 94.2288 35.7339V31.0994C94.2288 29.0672 93.981 25.9197 89.9909 25.9197Z" fill="#1B2B19"/>
<path d="M97.5248 54.9409H103.25V29.5133H105.059V54.9409H110.759V25.9197H97.5248V54.9409Z" fill="#1B2B19"/>
<path d="M122.035 40.4427C122.035 41.3597 121.589 41.9049 120.969 41.9049H120.226V29.5381H120.969C121.589 29.5381 122.035 30.0833 122.035 31.0003V40.4675V40.4427ZM123.497 25.9197H114.526V54.9409H120.251V45.0772H123.522C127.537 45.0772 127.76 41.9297 127.76 39.8975V31.1242C127.76 29.092 127.512 25.9445 123.522 25.9445" fill="#1B2B19"/>
<path d="M138.07 50.2569C138.07 50.7526 137.699 51.1987 137.178 51.1987C136.856 51.1987 136.286 51.0004 136.286 50.2569V30.4799C136.286 29.7364 136.856 29.5381 137.178 29.5381C137.723 29.5381 138.07 29.9842 138.07 30.4799V50.2569ZM139.533 25.9197H134.799C130.809 25.9197 130.561 29.0672 130.561 31.0994V49.7612C130.561 51.7935 130.809 54.9409 134.799 54.9409H139.533C143.547 54.9409 143.771 51.7935 143.771 49.7612V31.0994C143.771 29.0672 143.523 25.9197 139.533 25.9197Z" fill="#1B2B19"/>
<path d="M161.465 25.9197L157.748 46.3164L154.005 25.9197H146.595V54.9409H152.295V36.75H152.518L155.443 54.9409H160.028L162.952 36.75H163.175V54.9409H168.875V25.9197H161.465Z" fill="#1B2B19"/>
</g>
</g>
<defs>
<clipPath id="clip0_2071_3755">
<rect width="168" height="83" fill="white" transform="translate(0.57959 0.791016)"/>
</clipPath>
</defs>
</svg>
