<svg width="221" height="41" viewBox="0 0 221 41" fill="none" xmlns="http://www.w3.org/2000/svg">
<g id="Frame 73" clip-path="url(#clip0_2071_4360)">
<path id="Vector" fill-rule="evenodd" clip-rule="evenodd" d="M220.58 20.2186C220.572 15.4658 218.892 10.8674 215.834 7.22912C212.776 3.5908 208.535 1.14465 203.855 0.31929C199.174 -0.506067 194.352 0.342018 190.234 2.71494C186.116 5.08786 182.965 8.83426 181.332 13.2977C179.699 17.7611 179.689 22.6568 181.303 27.1269C182.918 31.597 186.054 35.3565 190.162 37.7465C194.27 40.1365 199.088 41.0046 203.772 40.1986C208.456 39.3927 212.707 36.9642 215.78 33.3386C214.518 35.7678 212.614 37.8044 210.276 39.2266V40.2826H220.516V20.2026L220.58 20.2186ZM200.372 30.1386C198.429 30.1417 196.528 29.5687 194.911 28.4918C193.294 27.415 192.032 25.8827 191.286 24.0888C190.539 22.295 190.341 20.32 190.717 18.4137C191.093 16.5074 192.026 14.7554 193.398 13.3793C194.769 12.0031 196.518 11.0647 198.423 10.6825C200.328 10.3003 202.304 10.4917 204.1 11.2323C205.897 11.9729 207.433 13.2296 208.515 14.8434C209.597 16.4571 210.176 18.3556 210.18 20.2986C210.18 22.9013 209.147 25.3976 207.308 27.2395C205.469 29.0814 202.974 30.1183 200.372 30.1226M30.5796 0.378577H40.9796V4.58658C40.9929 7.61442 40.3288 10.6069 39.0359 13.3449C37.743 16.0828 35.8542 18.497 33.5076 20.4106C35.8333 22.3071 37.7096 24.6955 39.0016 27.404C40.2936 30.1125 40.9691 33.0737 40.9796 36.0746V40.2826H30.5796V35.0186C30.4774 32.488 29.4001 30.095 27.5735 28.3407C25.7468 26.5863 23.3123 25.6066 20.7796 25.6066C18.247 25.6066 15.8125 26.5863 13.9858 28.3407C12.1591 30.095 11.0819 32.488 10.9796 35.0186V40.2826H0.57965V36.0746C0.583093 33.0709 1.25714 30.1059 2.5526 27.3959C3.84806 24.686 5.73225 22.2995 8.06765 20.4106C5.72261 18.5124 3.83273 16.1129 2.53692 13.3884C1.24111 10.6638 0.572299 7.68355 0.57965 4.66658V0.378577H10.9796V5.64258C11.0819 8.17318 12.1591 10.5661 13.9858 12.3205C15.8125 14.0748 18.247 15.0545 20.7796 15.0545C23.3123 15.0545 25.7468 14.0748 27.5735 12.3205C29.4001 10.5661 30.4774 8.17318 30.5796 5.64258V0.378577ZM128.772 15.0826C132.132 24.1706 132.308 32.4106 132.308 40.2826H121.892C122.08 34.4202 121.542 28.557 120.292 22.8266C118.5 15.7706 115.172 10.6506 112.068 10.6506C108.964 10.6506 105.668 15.7706 103.844 22.8266C102.586 28.5561 102.049 34.42 102.244 40.2826H91.9076C91.9076 33.1146 92.0836 24.1706 95.4436 15.0826C98.6436 6.61857 104.436 0.0585784 112.1 0.0585784C119.764 0.0585784 125.62 6.61857 128.772 15.0826ZM171.604 19.0986C172.81 17.2477 173.488 15.1026 173.564 12.8947C173.64 10.6868 173.111 8.5001 172.036 6.57057C170.937 4.70029 169.372 3.14763 167.492 2.0649C165.613 0.982176 163.485 0.406579 161.316 0.394577H138.916V40.2826H164.004C167.213 40.321 170.307 39.0838 172.605 36.8428C174.903 34.6017 176.217 31.5402 176.26 28.3306C176.282 26.5309 175.871 24.7522 175.061 23.1451C174.25 21.5381 173.064 20.1501 171.604 19.0986ZM149.204 10.3146H160.404C161.23 10.3804 162.007 10.7387 162.593 11.3252C163.179 11.9116 163.538 12.6878 163.604 13.5146C163.591 13.9685 163.489 14.4154 163.302 14.8293C163.115 15.2432 162.848 15.6158 162.516 15.9255C162.184 16.2352 161.794 16.4758 161.368 16.6332C160.942 16.7907 160.489 16.8618 160.036 16.8426H149.172L149.204 10.3146ZM162.58 30.3306H149.236V23.7546H162.324C163.195 23.8095 164.02 24.1701 164.652 24.773C165.284 25.3759 165.683 26.1824 165.78 27.0506C165.776 27.9056 165.44 28.7256 164.843 29.3376C164.246 29.9496 163.434 30.3057 162.58 30.3306ZM65.2516 0.0585784C61.8442 0.0515368 58.49 0.90421 55.4995 2.53768C52.5091 4.17114 49.979 6.53261 48.1436 9.4035C46.3081 12.2744 45.2266 15.5619 44.999 18.9618C44.7714 22.3617 45.4052 25.764 46.8417 28.8539C48.2782 31.9438 50.471 34.6214 53.2171 36.6388C55.9632 38.6562 59.1738 39.9483 62.5518 40.3954C65.9299 40.8425 69.3661 40.4302 72.5425 39.1967C75.7188 37.9632 78.5327 35.9483 80.7236 33.3386C79.4575 35.7645 77.5548 37.7999 75.2196 39.2266V40.2826H85.4596V20.2026C85.4343 14.8568 83.2951 9.73812 79.509 5.96403C75.7229 2.18994 70.5975 0.0669703 65.2516 0.0585784ZM65.2516 30.1386C63.3086 30.1449 61.4074 29.5749 59.7884 28.5007C58.1693 27.4265 56.9052 25.8963 56.1558 24.1036C55.4064 22.311 55.2054 20.3363 55.5783 18.4294C55.9511 16.5226 56.8811 14.769 58.2505 13.3907C59.6199 12.0123 61.3673 11.071 63.2717 10.6857C65.1762 10.3004 67.152 10.4885 68.9496 11.2262C70.7471 11.9639 72.2855 13.2181 73.3702 14.8301C74.4549 16.4421 75.0373 18.3396 75.0436 20.2826C75.0479 21.5712 74.7977 22.8479 74.3075 24.0396C73.8173 25.2314 73.0966 26.3146 72.187 27.2273C71.2773 28.1399 70.1964 28.8641 69.0063 29.3581C67.8162 29.8522 66.5402 30.1066 65.2516 30.1066" fill="#1B2B19"/>
</g>
<defs>
<clipPath id="clip0_2071_4360">
<rect width="220" height="40.5588" fill="white" transform="translate(0.57959 0.0117188)"/>
</clipPath>
</defs>
</svg>
