<svg width="221" height="48" viewBox="0 0 221 48" fill="none" xmlns="http://www.w3.org/2000/svg">
<g id="Frame 48" clip-path="url(#clip0_2071_3666)">
<g id="&#208;&#161;&#208;&#187;&#208;&#190;&#208;&#185; 2">
<g id="Layer 1">
<path id="Vector" d="M25.5832 1.04469C20.7854 0.694715 15.9969 1.83782 11.8745 4.31719C7.75215 6.79656 4.49792 10.4907 2.55827 14.8929C0.618617 19.295 0.0885738 24.1895 1.04086 28.9048C1.99314 33.6202 4.38109 37.9253 7.87711 41.2297C11.3731 44.5341 15.806 46.6759 20.5674 47.3611C25.3289 48.0463 30.1858 47.2415 34.4717 45.057C38.7576 42.8726 42.2627 39.4155 44.506 35.16C46.7493 30.9046 47.6209 26.0593 47.0013 21.2888C46.3148 15.9615 43.8073 11.0355 39.9037 7.3459C36.0001 3.65629 30.9407 1.43008 25.5832 1.04469ZM25.8409 36.522C23.9592 36.8107 22.0364 36.6653 20.2196 36.0969C18.4027 35.5284 16.7399 34.552 15.3583 33.2423C13.9767 31.9325 12.913 30.3242 12.2484 28.5402C11.5839 26.7563 11.3361 24.844 11.524 22.9496C11.8582 19.6765 13.4788 16.6702 16.0295 14.592C18.5802 12.5139 21.852 11.5341 25.1251 11.8683C28.3982 12.2024 31.4045 13.8231 33.4826 16.3738C35.5607 18.9245 36.5405 22.1963 36.2064 25.4693C35.9312 28.1893 34.7709 30.7437 32.9035 32.7404C31.0362 34.7371 28.565 36.0656 25.8696 36.522M62.9504 2.01824L97.0819 2.30458C97.3714 2.3027 97.6554 2.38367 97.9003 2.53793C98.1453 2.69219 98.3411 2.91331 98.4645 3.17519C98.5879 3.43707 98.6339 3.7288 98.5969 4.01593C98.5599 4.30307 98.4416 4.57364 98.2558 4.79572L74.4611 35.6916L92.9013 35.8348C93.7088 35.8422 94.5045 36.0292 95.2307 36.3823C95.9568 36.7355 96.5953 37.2458 97.0998 37.8764C97.6042 38.5069 97.9619 39.2418 98.147 40.0278C98.3322 40.8138 98.34 41.6312 98.1699 42.4206C97.9091 43.6931 97.2105 44.834 96.1956 45.6449C95.1807 46.4557 93.9137 46.8853 92.615 46.8588L55.5915 46.5725C55.3039 46.5621 55.0246 46.4732 54.784 46.3153C54.5434 46.1575 54.3506 45.9367 54.2267 45.677C54.1027 45.4172 54.0523 45.1285 54.0809 44.8422C54.1095 44.5558 54.216 44.2828 54.3888 44.0527L78.2122 12.9564H63.0649C61.7919 12.9411 60.5603 12.502 59.5647 11.7087C58.5691 10.9153 57.8663 9.81281 57.5672 8.57538C57.3901 7.77454 57.3964 6.94403 57.5856 6.14596C57.7748 5.3479 58.142 4.60294 58.6597 3.9668C59.1775 3.33067 59.8323 2.81982 60.5753 2.47248C61.3183 2.12513 62.1302 1.95027 62.9504 1.96097V2.01824ZM213.994 2.36185C214.792 2.19533 215.617 2.20943 216.41 2.4031C217.202 2.59678 217.94 2.96514 218.572 3.48121C219.203 3.99728 219.711 4.648 220.058 5.38574C220.406 6.12348 220.584 6.92957 220.58 7.745L220.293 45.1694C220.28 45.4623 220.187 45.7461 220.025 45.9899C219.862 46.2337 219.635 46.4281 219.369 46.5521C219.104 46.6761 218.809 46.7249 218.518 46.6931C218.226 46.6614 217.949 46.5503 217.716 46.372L188.51 22.835L188.366 41.132C188.365 41.9479 188.18 42.7531 187.826 43.4879C187.471 44.2227 186.956 44.8684 186.318 45.3771C185.68 45.8858 184.936 46.2444 184.141 46.4266C183.345 46.6087 182.519 46.6096 181.723 46.4293C180.513 46.0967 179.446 45.3757 178.685 44.3772C177.925 43.3787 177.513 42.1581 177.514 40.903L177.801 3.679C177.807 3.38646 177.895 3.10152 178.054 2.85613C178.214 2.61074 178.438 2.41461 178.703 2.28973C178.968 2.16486 179.262 2.11617 179.552 2.14914C179.843 2.18211 180.119 2.29542 180.349 2.47638L209.641 25.8988V7.80227C209.664 6.55064 210.097 5.34099 210.872 4.35845C211.648 3.37591 212.724 2.67459 213.936 2.36185M135.193 11.9828C147.592 11.7537 156.984 18.225 157.098 23.9517C157.213 29.6785 148.05 36.5506 135.623 36.7797C123.196 37.0088 113.833 30.6234 113.718 24.7535C113.604 18.8836 122.738 12.2119 135.193 11.9828ZM134.964 1.04469C117.011 1.41693 102.608 12.0973 102.837 24.9253C103.066 37.7532 117.87 47.8323 135.823 47.5746C153.777 47.3169 168.18 36.6365 167.951 23.7513C167.721 10.8661 152.946 0.786985 134.964 1.04469Z" fill="#1B2B19"/>
</g>
</g>
</g>
<defs>
<clipPath id="clip0_2071_3666">
<rect width="220" height="46.6159" fill="white" transform="translate(0.57959 0.98291)"/>
</clipPath>
</defs>
</svg>
