<svg width="96" height="96" viewBox="0 0 96 96" fill="none" xmlns="http://www.w3.org/2000/svg">
<g id="Frame 72" clip-path="url(#clip0_2071_4330)">
<g id="&#208;&#161;&#208;&#187;&#208;&#190;&#208;&#185; 2">
<g id="&#208;&#161;&#208;&#187;&#208;&#190;&#208;&#185; 1">
<path id="Vector" d="M47.9567 46.938L85.6341 19.3246C87.8791 22.2583 89.7971 25.4282 91.3542 28.7782L48.0626 60.6981L29.8622 49.2765V35.6099L47.9567 46.938ZM95.5797 48.3424C95.5668 45.4868 95.3169 42.6372 94.8324 39.8229L84.6128 47.4051V48.3393C84.617 53.1443 83.6648 57.9021 81.8119 62.3355C79.959 66.7689 77.2424 70.7893 73.8202 74.1623L73.7361 74.0782C70.3838 77.5147 66.3724 80.2393 61.9423 82.089C57.5121 83.9386 52.7543 84.8752 47.9536 84.8428C47.6173 84.8428 47.2841 84.8428 46.9509 84.8272C46.6676 84.8272 46.3842 84.7929 46.0791 84.7493V84.7929C37.0484 84.3381 28.5121 80.5308 22.1399 74.1156L22.1741 74.0782C18.7526 70.723 16.0363 66.7175 14.185 62.2973C12.3337 57.8771 11.3848 53.1315 11.3941 48.3393C11.3941 48.0279 11.3941 47.6978 11.3941 47.3802C11.405 47.0738 11.432 46.7683 11.475 46.4647H11.4314C11.9112 37.4453 15.7267 28.9263 22.1368 22.5629L22.171 22.6003C25.5422 19.1889 29.5572 16.4808 33.983 14.633C38.4088 12.7851 43.1575 11.8343 47.9536 11.8358C48.5778 11.8206 49.2023 11.8518 49.8219 11.9292V11.8171C56.5367 12.1893 63.0207 14.3973 68.5672 18.2005L77.862 11.3781C69.3981 4.54075 58.8497 0.804873 47.9692 0.791016V0.884431C36.1936 0.89579 24.8421 5.28145 16.1177 13.1903L16.0773 13.1467C11.1644 17.56 7.23235 22.9552 4.53546 28.9835C1.83857 35.0119 0.436841 41.5391 0.420898 48.1431C0.420898 48.1774 0.420898 48.2147 0.420898 48.249V48.3424C0.438876 60.0997 4.83226 71.4295 12.7455 80.1253L12.7019 80.1658C17.1095 85.0514 22.4874 88.9643 28.4922 91.6547C34.4971 94.3451 40.9969 95.7538 47.5768 95.791H47.8571C59.6845 95.7991 71.0893 91.3931 79.8393 83.4353L79.9202 83.5287C84.8476 79.0865 88.7872 73.6591 91.4842 67.5978C94.1812 61.5366 95.5754 54.9766 95.5766 48.3424H95.5797Z" fill="#1B2B19"/>
</g>
</g>
</g>
<defs>
<clipPath id="clip0_2071_4330">
<rect width="95.1588" height="95" fill="white" transform="translate(0.420898 0.791016)"/>
</clipPath>
</defs>
</svg>
